<?xml version="1.0" encoding="iso-8859-1"?>
<!-- Generator: Adobe Illustrator 16.0.0, SVG Export Plug-In . SVG Version: 6.00 Build 0)  -->
<!DOCTYPE svg PUBLIC "-//W3C//DTD SVG 1.1//EN" "http://www.w3.org/Graphics/SVG/1.1/DTD/svg11.dtd">
<svg version="1.1" id="Capa_1" xmlns="http://www.w3.org/2000/svg" xmlns:xlink="http://www.w3.org/1999/xlink" x="0px" y="0px"
	 width="21.195px" height="21.196px" viewBox="0 0 21.195 21.196" style="enable-background:new 0 0 21.195 21.196;"
	 xml:space="preserve">
<g>
	<path d="M13.855,8.489c-0.1-0.529-0.013-0.757-0.617-0.699c-1.117,0.106-0.91-0.614-0.498-1.065
		c0.704-0.771,0.417-1.27-0.203-1.828c-0.399-0.36-0.804-0.729-1.137-1.148c-1.194-1.5-3.023-0.946-4.497-1.146
		C6.01,2.481,4.368,3.254,4.369,4.959c0,0.266-0.246,0.348-0.376,0.511c-1.161,1.449-2.317,2.931-2.538,4.861
		c-0.068,0.595,0.13,1.208-0.84,1.126c-0.388-0.032-0.554,0.41-0.608,0.725c-0.069,0.414,0.37,0.356,0.61,0.468
		c0.833,0.383,1.564,1.046,1.824,1.813c0.87,2.571,3.187,3.065,5.245,3.96c1.686,0.733,2.997-0.997,4.798-0.653
		c1.357,0.259,2.652-1.51,4.347-1.198c0.145,0.025,0.356-0.293,0.531-0.458c1.278-1.205,2.556-2.41,3.833-3.615
		c-2.086-0.336-3.728-1.164-5.415-1.77C14.803,10.378,14.045,9.491,13.855,8.489z"/>
</g>
<g>
</g>
<g>
</g>
<g>
</g>
<g>
</g>
<g>
</g>
<g>
</g>
<g>
</g>
<g>
</g>
<g>
</g>
<g>
</g>
<g>
</g>
<g>
</g>
<g>
</g>
<g>
</g>
<g>
</g>
</svg>
