<svg width="50" height="50" viewBox="0 0 50 50" fill="none" xmlns="http://www.w3.org/2000/svg">
<rect width="50" height="50" rx="9.09091" fill="#EDC63A"/>
<path fill-rule="evenodd" clip-rule="evenodd" d="M16.7377 15.7377V34.2623H23.2951V25.082C23.2951 23.4975 24.5795 22.2131 26.1639 22.2131C27.7484 22.2131 29.0328 23.4975 29.0328 25.082V35.3279C29.0328 37.9082 26.941 40 24.3607 40H15.6721C13.0918 40 11 37.9082 11 35.3279V14.6721C11 12.0918 13.0918 10 15.6721 10H36.3279C38.9082 10 41 12.0918 41 14.6721V25.082C41 26.6664 39.7156 27.9508 38.1311 27.9508C36.5467 27.9508 35.2623 26.6664 35.2623 25.082V15.7377H16.7377Z" fill="#2B2B2B"/>
</svg>
